<?xml version="1.0" standalone="no"?>
<!DOCTYPE svg PUBLIC "-//W3C//DTD SVG 20010904//EN"
 "http://www.w3.org/TR/2001/REC-SVG-20010904/DTD/svg10.dtd">
<svg version="1.0" xmlns="http://www.w3.org/2000/svg"
 width="152.000000pt" height="152.000000pt" viewBox="0 0 152.000000 152.000000"
 preserveAspectRatio="xMidYMid meet">
<metadata>
Created by potrace 1.11, written by Peter Selinger 2001-2013
</metadata>
<g transform="translate(0.000000,152.000000) scale(0.100000,-0.100000)"
fill="#000000" stroke="none">
<path d="M305 1446 c-22 -7 -43 -13 -47 -14 -21 -6 -44 -17 -56 -26 -86 -67
-133 -152 -134 -241 -1 -56 20 -145 34 -145 4 0 8 -6 8 -13 0 -21 79 -95 126
-118 148 -71 332 -1 398 152 72 166 -34 374 -204 403 -76 13 -86 13 -125 2z
m91 -196 c71 -28 90 -109 37 -161 -81 -80 -201 3 -160 110 7 20 23 36 47 45
43 18 43 18 76 6z"/>
<path d="M1058 1383 c-8 -10 -30 -43 -49 -73 -18 -30 -37 -56 -41 -58 -5 -2
-8 -10 -8 -17 0 -7 -3 -15 -7 -17 -12 -5 -53 -66 -53 -78 0 -5 -4 -10 -9 -10
-5 0 -13 -9 -16 -20 -3 -11 -12 -26 -18 -32 -7 -7 -73 -105 -147 -218 -74
-113 -138 -206 -142 -208 -5 -2 -8 -10 -8 -17 0 -7 -3 -15 -7 -17 -11 -4 -73
-97 -73 -107 0 -5 -3 -11 -7 -13 -11 -5 -53 -66 -53 -77 0 -5 -3 -11 -7 -13
-11 -4 -123 -175 -123 -186 0 -8 30 -30 131 -96 l27 -17 388 582 c214 321 392
588 397 595 5 9 -17 29 -68 63 -41 28 -79 51 -84 51 -4 0 -15 -8 -23 -17z"/>
<path d="M1096 653 c-2 -3 -10 -6 -18 -7 -47 -8 -158 -89 -158 -115 0 -6 -3
-11 -7 -11 -20 0 -47 -98 -47 -165 3 -292 384 -397 545 -150 121 187 -18 444
-243 450 -37 1 -69 0 -72 -2z m135 -222 c43 -46 33 -122 -20 -154 -56 -33
-112 -14 -147 48 -16 28 1 85 34 113 34 29 103 26 133 -7z"/>
</g>
</svg>
